<svg xmlns="http://www.w3.org/2000/svg" viewBox="0 0 586 216"><title>Projects-Home</title><polygon points="0 149.46 34.08 81.99 0 27.52 0 149.46" style="fill:#ec8f26"/><polygon points="15.47 216 100 138.25 45.96 161.54 15.47 216" style="fill:#eba12a"/><polygon points="82.01 0 0.71 157.3 53.62 130.48 99.38 75.13 82.01 0" style="fill:#eba12a"/><polygon points="53.62 130.48 0.71 157.3 45.96 161.54 100 138.25 53.62 130.48" style="fill:#ec8f26"/><path d="M243.21,54.08V162H218.28V117.77h-43V162H150.34V54.08h24.92v41.8h43V54.08Z" style="fill:#eba12a"/><path d="M298.84,163.52a46.78,46.78,0,0,1-18.16-3.34,39.5,39.5,0,0,1-13.45-9.05,38.14,38.14,0,0,1-8.29-13.22,45.46,45.46,0,0,1,0-31.47,38.14,38.14,0,0,1,8.29-13.22,40.38,40.38,0,0,1,13.45-9.12,45.7,45.7,0,0,1,18.16-3.42,45.18,45.18,0,0,1,18.09,3.42,40.69,40.69,0,0,1,13.38,9.12,39.37,39.37,0,0,1,8.36,13.22,43.66,43.66,0,0,1,2.88,15.74,44.69,44.69,0,0,1-2.81,15.73,38.41,38.41,0,0,1-8.28,13.22A39.64,39.64,0,0,1,317,160.18,46.74,46.74,0,0,1,298.84,163.52Zm-17.78-41.34q0,9.42,5,15.12a16.27,16.27,0,0,0,12.77,5.7,16.08,16.08,0,0,0,7-1.52,16.64,16.64,0,0,0,5.55-4.26,20.28,20.28,0,0,0,3.72-6.61,24.93,24.93,0,0,0,1.37-8.43q0-9.44-5-15.13a16.11,16.11,0,0,0-12.62-5.7,16.48,16.48,0,0,0-12.69,5.78,20.59,20.59,0,0,0-3.73,6.61A25.24,25.24,0,0,0,281.06,122.18Z" style="fill:#eba12a"/><path d="M479.72,162H455.4V117.16q0-7.91-2.89-11.48a9.16,9.16,0,0,0-7.45-3.57,12.58,12.58,0,0,0-4.94,1.07,16.56,16.56,0,0,0-4.63,3,24.29,24.29,0,0,0-3.88,4.48,24.69,24.69,0,0,0-2.81,5.63V162H404.48V117.16q0-7.91-2.89-11.48a9.16,9.16,0,0,0-7.45-3.57,14.71,14.71,0,0,0-9.5,3.88,22.12,22.12,0,0,0-6.76,10.26V162H353.56V82.2h21.89V95.58a28.8,28.8,0,0,1,11.93-11.1,38.5,38.5,0,0,1,17.56-3.8,28.18,28.18,0,0,1,8.73,1.22,20.89,20.89,0,0,1,6.46,3.34,17.62,17.62,0,0,1,4.41,4.94,21.14,21.14,0,0,1,2.43,6,31.53,31.53,0,0,1,12-11.47,35.18,35.18,0,0,1,17-4q7.59,0,12.23,2.81a20.35,20.35,0,0,1,7.22,7.3,28.17,28.17,0,0,1,3.42,9.8,66.27,66.27,0,0,1,.84,10.34Z" style="fill:#eba12a"/><path d="M533.83,163.52a47.11,47.11,0,0,1-18-3.27,40.07,40.07,0,0,1-13.53-8.89,38.14,38.14,0,0,1-8.44-13A42,42,0,0,1,491,122.94a46.08,46.08,0,0,1,2.88-16.34,39.92,39.92,0,0,1,8.36-13.46A39.09,39.09,0,0,1,515.67,84a46.78,46.78,0,0,1,18.16-3.34A46.24,46.24,0,0,1,551.92,84a39.64,39.64,0,0,1,13.37,9,38.37,38.37,0,0,1,8.29,13.15,44,44,0,0,1,2.81,15.65c0,1.42,0,2.81-.15,4.18a29.62,29.62,0,0,1-.46,3.57h-59q.6,8.07,5.85,12.24A18.59,18.59,0,0,0,534.59,146a21.87,21.87,0,0,0,10.26-2.58,13.22,13.22,0,0,0,6.61-7l20.67,5.78a37.16,37.16,0,0,1-14.59,15.35Q547.66,163.51,533.83,163.52Zm16.87-48.94q-.76-7.6-5.47-12a16.46,16.46,0,0,0-11.7-4.41,16.27,16.27,0,0,0-11.78,4.48,18.59,18.59,0,0,0-5.4,11.94Z" style="fill:#eba12a"/></svg>