<svg xmlns="http://www.w3.org/2000/svg" id="Projects-New_Ara" width="118.882" height="34.407" data-name="Projects-New Ara" viewBox="0 0 118.882 34.407">
    <defs>
        <style>
            .cls-1{fill:#ec8f26}.cls-2{fill:#eba12a}
        </style>
    </defs>
    <path id="패스_49" d="M0 46.944L5.429 36.2 0 27.52z" class="cls-1" data-name="패스 49" transform="translate(0 -23.136)"/>
    <path id="패스_50" d="M15.47 150.635l13.465-12.385-8.608 3.71z" class="cls-2" data-name="패스 50" transform="translate(-13.006 -116.228)"/>
    <path id="패스_51" d="M13.66 0L.71 25.056l8.428-4.272 7.289-8.817z" class="cls-2" data-name="패스 51" transform="translate(-.597)"/>
    <path id="패스_52" d="M9.138 130.48L.71 134.752l7.208.675 8.608-3.71z" class="cls-1" data-name="패스 52" transform="translate(-.597 -109.696)"/>
    <path id="패스_53" d="M154.309 61.441v9.83h-3.969V54.08h3.1l8.014 10.1v-10.1h3.966v17.191h-3.186z" class="cls-2" data-name="패스 53" transform="translate(-126.392 -45.466)"/>
    <path id="패스_54" d="M264.82 93.853a7.514 7.514 0 0 1-2.867-.521 6.36 6.36 0 0 1-2.154-1.416 6.052 6.052 0 0 1-1.344-2.071 6.654 6.654 0 0 1-.455-2.456 7.307 7.307 0 0 1 .46-2.6 6.309 6.309 0 0 1 1.332-2.144 6.212 6.212 0 0 1 2.134-1.456 7.459 7.459 0 0 1 2.894-.532 7.364 7.364 0 0 1 2.88.532 6.338 6.338 0 0 1 2.131 1.434 6.084 6.084 0 0 1 1.319 2.095 6.976 6.976 0 0 1 .449 2.493c0 .226-.01.448-.025.666a4.751 4.751 0 0 1-.072.569h-9.4a2.611 2.611 0 0 0 .932 1.95 2.968 2.968 0 0 0 1.905.671 3.493 3.493 0 0 0 1.634-.411 2.11 2.11 0 0 0 1.053-1.115l3.293.921A5.929 5.929 0 0 1 268.6 92.9a7.188 7.188 0 0 1-3.78.953zm2.687-7.8a2.907 2.907 0 0 0-.871-1.911 2.628 2.628 0 0 0-1.865-.7 2.6 2.6 0 0 0-1.876.714 2.96 2.96 0 0 0-.859 1.9z" class="cls-2" data-name="패스 54" transform="translate(-216.902 -67.806)"/>
    <path id="패스_55" d="M360.457 82.2h3.68l-5.257 12.711h-3.168l-1.962-5.229-1.961 5.229h-3.171L343.36 82.2h3.656l3.461 9.127 1.187-3.461-2.248-5.666h3.1l1.235 3.823 1.211-3.823h3.1l-2.23 5.666 1.185 3.461z" class="cls-2" data-name="패스 55" transform="translate(-288.666 -69.106)"/>
    <path id="패스_56" d="M506.36 54.08h3.592l6.263 17.191h-4.068l-1.332-3.85h-5.351l-1.308 3.85h-4.066zm3.8 10.605l-2.01-6.078-2.058 6.078z" class="cls-2" data-name="패스 56" transform="translate(-420.431 -45.466)"/>
    <path id="패스_57" d="M618.06 84.5a7.467 7.467 0 0 0-2.549.46 3.112 3.112 0 0 0-1.647 1.308V93.9H610V81.191h3.56v2.566a5.381 5.381 0 0 1 1.679-2.009 3.891 3.891 0 0 1 2.192-.748h.387a1.264 1.264 0 0 1 .242.025z" class="cls-2" data-name="패스 57" transform="translate(-512.833 -68.098)"/>
    <path id="패스_58" d="M669.123 93.858a4.968 4.968 0 0 1-1.752-.3 4.105 4.105 0 0 1-1.392-.847 4.06 4.06 0 0 1-.921-1.284 3.809 3.809 0 0 1-.339-1.609 3.7 3.7 0 0 1 .4-1.72 3.96 3.96 0 0 1 1.126-1.332 5.575 5.575 0 0 1 1.719-.871 7.3 7.3 0 0 1 2.2-.319 8.961 8.961 0 0 1 1.55.132 5.14 5.14 0 0 1 1.308.4v-.581q0-2.2-2.549-2.2a5.677 5.677 0 0 0-1.985.35 9.535 9.535 0 0 0-1.975 1.059l-1.145-2.424a10.2 10.2 0 0 1 2.614-1.236 9.892 9.892 0 0 1 2.881-.411 6.642 6.642 0 0 1 4.46 1.356 4.934 4.934 0 0 1 1.574 3.971v3.269a1.347 1.347 0 0 0 .182.811.9.9 0 0 0 .637.279v3.272a6.372 6.372 0 0 1-.921.159 8.683 8.683 0 0 1-.75.037 2.7 2.7 0 0 1-1.647-.424 1.872 1.872 0 0 1-.7-1.2l-.073-.581a5.813 5.813 0 0 1-2.013 1.669 5.532 5.532 0 0 1-2.49.581zm1.137-2.791a3.532 3.532 0 0 0 1.223-.218 2.843 2.843 0 0 0 .98-.581 1.206 1.206 0 0 0 .558-.919v-1.211a6.189 6.189 0 0 0-1.1-.3 6.052 6.052 0 0 0-1.1-.11 2.993 2.993 0 0 0-1.752.478 1.478 1.478 0 0 0-.69 1.26 1.433 1.433 0 0 0 .532 1.15 2.039 2.039 0 0 0 1.352.454z" class="cls-2" data-name="패스 58" transform="translate(-558.835 -67.811)"/>
</svg>
