<svg xmlns="http://www.w3.org/2000/svg" id="Services-Kono" width="81.305" height="34.838" viewBox="0 0 81.305 34.838">
    <defs>
        <style>
            .cls-1{fill:#5368d3}.cls-2{fill:#6078f4}
        </style>
    </defs>
    <path id="패스_90" d="M0 47.177L5.5 36.29 0 27.5z" class="cls-1" data-name="패스 90" transform="translate(0 -23.065)"/>
    <path id="패스_91" d="M15.5 150.748L29.129 138.2l-8.709 3.758z" class="cls-2" data-name="패스 91" transform="translate(-13 -115.91)"/>
    <path id="패스_92" d="M13.813 0L.7 25.37l8.532-4.322 7.387-8.935z" class="cls-2" data-name="패스 92" transform="translate(-.587)"/>
    <path id="패스_93" d="M9.232 130.5L.7 134.822l7.306.677 8.709-3.758z" class="cls-1" data-name="패스 93" transform="translate(-.587 -109.452)"/>
    <g id="그룹_12" data-name="그룹 12" transform="translate(22.629 8.726)">
        <path id="패스_94" d="M140.3 71.5V54.1h4.016v7.5l6.371-7.5h4.513l-6.516 7.774 6.968 9.629h-4.6l-4.935-7.016-1.806 1.887V71.5z" class="cls-2" data-name="패스 94" transform="translate(-140.3 -54.1)"/>
        <path id="패스_95" d="M239.7 94.222a7.679 7.679 0 0 1-2.935-.532 6.443 6.443 0 0 1-2.177-1.452 6.353 6.353 0 0 1-1.339-2.129 7.325 7.325 0 0 1 0-5.064 6.109 6.109 0 0 1 1.339-2.129 6.4 6.4 0 0 1 2.177-1.468 7.33 7.33 0 0 1 2.935-.548 7.25 7.25 0 0 1 2.919.548 6.346 6.346 0 0 1 3.516 3.6 7.119 7.119 0 0 1 .468 2.532 7.041 7.041 0 0 1-.452 2.532 6.133 6.133 0 0 1-3.516 3.581 7.679 7.679 0 0 1-2.935.529zm-2.871-6.661a3.577 3.577 0 0 0 .81 2.439 2.77 2.77 0 0 0 3.193.677 2.462 2.462 0 0 0 .887-.694 3.1 3.1 0 0 0 .6-1.064 4.116 4.116 0 0 0 .226-1.355 3.577 3.577 0 0 0-.806-2.435 2.6 2.6 0 0 0-2.032-.919 2.752 2.752 0 0 0-1.145.242 2.385 2.385 0 0 0-.9.694 3.1 3.1 0 0 0-.6 1.064 3.977 3.977 0 0 0-.23 1.351z" class="cls-2" data-name="패스 95" transform="translate(-217.881 -76.578)"/>
        <path id="패스_96" d="M342.7 93.813h-3.919v-7.226a2.871 2.871 0 0 0-.484-1.855 1.56 1.56 0 0 0-1.258-.581 2.3 2.3 0 0 0-.839.177 3.244 3.244 0 0 0-.806.484 3.7 3.7 0 0 0-.694.726 3.256 3.256 0 0 0-.484.9v7.371H330.3V80.942h3.532V83.1a4.611 4.611 0 0 1 2.016-1.774 6.812 6.812 0 0 1 2.984-.629 3.889 3.889 0 0 1 2.016.452 3.294 3.294 0 0 1 1.177 1.177 4.5 4.5 0 0 1 .548 1.581 9.862 9.862 0 0 1 .129 1.661z" class="cls-2" data-name="패스 96" transform="translate(-299.656 -76.41)"/>
        <path id="패스_97" d="M425.4 94.222a7.679 7.679 0 0 1-2.935-.532 6.443 6.443 0 0 1-2.177-1.452 6.354 6.354 0 0 1-1.339-2.129 7.325 7.325 0 0 1 0-5.064 6.11 6.11 0 0 1 1.339-2.129 6.4 6.4 0 0 1 2.177-1.468 7.33 7.33 0 0 1 2.935-.548 7.25 7.25 0 0 1 2.919.548 6.346 6.346 0 0 1 3.516 3.6 7.119 7.119 0 0 1 .468 2.532 7.041 7.041 0 0 1-.452 2.532 6.133 6.133 0 0 1-3.516 3.581 7.622 7.622 0 0 1-2.935.529zm-2.871-6.661a3.577 3.577 0 0 0 .81 2.439 2.77 2.77 0 0 0 3.193.677 2.462 2.462 0 0 0 .887-.694 3.1 3.1 0 0 0 .6-1.064 4.116 4.116 0 0 0 .226-1.355 3.577 3.577 0 0 0-.806-2.435 2.6 2.6 0 0 0-2.032-.919 2.752 2.752 0 0 0-1.145.242 2.385 2.385 0 0 0-.9.694 3.1 3.1 0 0 0-.6 1.064 3.977 3.977 0 0 0-.23 1.351z" class="cls-2" data-name="패스 97" transform="translate(-373.63 -76.578)"/>
    </g>
</svg>
