<svg xmlns="http://www.w3.org/2000/svg" id="SPARCS" width="145.694" height="43.78" viewBox="0 0 145.694 43.78">
    <defs>
        <style>
            .cls-1{fill:#ec8f26}.cls-2{fill:#eba12a}.cls-3{fill:#ec9b29}.cls-4{fill:#ed9528}.cls-5{fill:#ed8e27}.cls-6{fill:#ee8726}.cls-7{fill:#ee8024}
        </style>
    </defs>
    <path id="패스_1" d="M0 52.235L6.907 38.56 0 27.52z" class="cls-1" data-name="패스 1" transform="translate(0 -21.942)"/>
    <path id="패스_2" d="M15.47 154.009L32.6 138.25l-10.95 4.72z" class="cls-2" data-name="패스 2" transform="translate(-12.334 -110.229)"/>
    <path id="패스_3" d="M17.188 0L.71 31.882l10.724-5.436 9.275-11.219z" class="cls-2" data-name="패스 3" transform="translate(-.566)"/>
    <path id="패스_4" d="M11.434 130.48L.71 135.916l9.171.859 10.953-4.72z" class="cls-1" data-name="패스 4" transform="translate(-.566 -104.034)"/>
    <path id="패스_5" d="M157.4 59.818a3.05 3.05 0 0 0-.647-.462 12.362 12.362 0 0 0-1.386-.709 13.332 13.332 0 0 0-1.82-.647 7.285 7.285 0 0 0-1.972-.278q-2.712 0-2.712 1.824a1.437 1.437 0 0 0 .294.924 2.619 2.619 0 0 0 .861.663 8.018 8.018 0 0 0 1.433.539q.867.233 2.009.547a26.4 26.4 0 0 1 2.838.94 7.629 7.629 0 0 1 2.14 1.263 5.116 5.116 0 0 1 1.356 1.824 6.374 6.374 0 0 1 .476 2.588 6.488 6.488 0 0 1-.693 3.127 5.823 5.823 0 0 1-1.824 2.063 7.75 7.75 0 0 1-2.619 1.141 13.1 13.1 0 0 1-3.05.355 16.977 16.977 0 0 1-2.465-.186 17.481 17.481 0 0 1-2.465-.539 19 19 0 0 1-2.335-.839 12.93 12.93 0 0 1-2.08-1.139l2.217-4.406a4.257 4.257 0 0 0 .8.586 11.959 11.959 0 0 0 1.68.863 17.162 17.162 0 0 0 2.23.77 9.4 9.4 0 0 0 2.5.338q2.679 0 2.679-1.634a1.382 1.382 0 0 0-.405-1.013 3.762 3.762 0 0 0-1.111-.724 11.821 11.821 0 0 0-1.678-.608q-.969-.276-2.11-.608a18.055 18.055 0 0 1-2.619-1 6.892 6.892 0 0 1-1.824-1.247 4.55 4.55 0 0 1-1.086-1.638 6.036 6.036 0 0 1-.353-2.157 6.867 6.867 0 0 1 .647-3.04 6.6 6.6 0 0 1 1.755-2.23 7.647 7.647 0 0 1 2.572-1.37 10.235 10.235 0 0 1 3.1-.462 11.756 11.756 0 0 1 2.25.215 16.79 16.79 0 0 1 2.132.547 14.956 14.956 0 0 1 1.9.77q.878.432 1.621.861z" class="cls-2" data-name="패스 5" transform="translate(-113.809 -42.449)"/>
    <path id="패스_6" d="M243.81 75.952V54.078h9.336a6.407 6.407 0 0 1 2.88.647 7.394 7.394 0 0 1 2.25 1.694 8.087 8.087 0 0 1 1.478 2.373 7.019 7.019 0 0 1 .539 2.679 7.685 7.685 0 0 1-.507 2.773 7.927 7.927 0 0 1-1.419 2.371 6.66 6.66 0 0 1-2.2 1.664 6.573 6.573 0 0 1-2.866.608h-4.437v7.063zm5.053-11.46h4.129a1.956 1.956 0 0 0 1.54-.77 3.423 3.423 0 0 0 .647-2.25 3.913 3.913 0 0 0-.2-1.326 2.714 2.714 0 0 0-.539-.924 2.073 2.073 0 0 0-.77-.539 2.367 2.367 0 0 0-.859-.162h-3.944z" class="cls-3" data-name="패스 6" transform="translate(-194.394 -43.117)"/>
    <path id="패스_7" d="M329.618 54.08h4.56l7.98 21.874h-5.177l-1.688-4.9h-6.814l-1.664 4.9h-5.175zm4.838 13.495L331.9 59.84l-2.619 7.734z" class="cls-4" data-name="패스 7" transform="translate(-256.449 -43.119)"/>
    <path id="패스_8" d="M433.51 75.952V54.079h9.858a6.344 6.344 0 0 1 2.85.647 7.607 7.607 0 0 1 2.264 1.694 7.928 7.928 0 0 1 1.494 2.373 7.057 7.057 0 0 1 .539 2.679 7.592 7.592 0 0 1-.955 3.737 6.7 6.7 0 0 1-2.619 2.619l4.806 8.124h-5.7l-4.189-7.052h-3.3v7.055zm5.053-11.46h4.621a1.9 1.9 0 0 0 1.54-.847 3.49 3.49 0 0 0 .641-2.173 3.053 3.053 0 0 0-.74-2.157 2.183 2.183 0 0 0-1.6-.811h-4.459z" class="cls-5" data-name="패스 8" transform="translate(-345.645 -43.118)"/>
    <path id="패스_9" d="M529.12 64.339a11.037 11.037 0 0 1 .738-3.928 10.715 10.715 0 0 1 2.157-3.5 10.973 10.973 0 0 1 3.446-2.5 10.742 10.742 0 0 1 4.621-.955 10.4 10.4 0 0 1 5.345 1.326 8.557 8.557 0 0 1 3.373 3.446l-3.875 2.716a4.508 4.508 0 0 0-.938-1.433 5.177 5.177 0 0 0-1.249-.924 5.094 5.094 0 0 0-1.386-.493 7.148 7.148 0 0 0-1.386-.14 5.224 5.224 0 0 0-2.525.586 5.568 5.568 0 0 0-1.788 1.51 6.307 6.307 0 0 0-1.048 2.1 8.512 8.512 0 0 0-.338 2.363 7.816 7.816 0 0 0 .405 2.5 6.6 6.6 0 0 0 1.155 2.126 5.576 5.576 0 0 0 1.824 1.463 5.217 5.217 0 0 0 2.388.539 6.121 6.121 0 0 0 1.4-.17 5.574 5.574 0 0 0 1.386-.523 4.878 4.878 0 0 0 1.216-.924 4.268 4.268 0 0 0 .894-1.4l4.129 2.432a6.434 6.434 0 0 1-1.463 2.157 9.056 9.056 0 0 1-2.229 1.6 12.262 12.262 0 0 1-5.452 1.324 9.771 9.771 0 0 1-4.36-.971 11 11 0 0 1-3.419-2.572 11.78 11.78 0 0 1-2.23-3.634 11.39 11.39 0 0 1-.791-4.121z" class="cls-6" data-name="패스 9" transform="translate(-421.876 -42.626)"/>
    <path id="패스_10" d="M647.064 59.818a2.935 2.935 0 0 0-.647-.462 12.016 12.016 0 0 0-1.386-.709 13.138 13.138 0 0 0-1.824-.647 7.257 7.257 0 0 0-1.954-.278q-2.712 0-2.712 1.824a1.449 1.449 0 0 0 .28.918 2.635 2.635 0 0 0 .863.663 7.96 7.96 0 0 0 1.433.539q.859.247 2 .553a26.209 26.209 0 0 1 2.838.94 7.613 7.613 0 0 1 2.142 1.263 5.134 5.134 0 0 1 1.354 1.824 6.371 6.371 0 0 1 .478 2.588 6.488 6.488 0 0 1-.693 3.127 5.842 5.842 0 0 1-1.824 2.063 7.751 7.751 0 0 1-2.619 1.141 13.111 13.111 0 0 1-3.04.355 16.958 16.958 0 0 1-2.465-.186 17.418 17.418 0 0 1-2.465-.539 19.146 19.146 0 0 1-2.327-.847 12.928 12.928 0 0 1-2.08-1.139l2.219-4.406a4.257 4.257 0 0 0 .811.586 12.026 12.026 0 0 0 1.678.863 17.269 17.269 0 0 0 2.229.77 9.406 9.406 0 0 0 2.5.338q2.681 0 2.681-1.634a1.376 1.376 0 0 0-.405-1.013 3.75 3.75 0 0 0-1.109-.724 11.828 11.828 0 0 0-1.678-.608q-.973-.276-2.112-.608a18.147 18.147 0 0 1-2.639-1 6.921 6.921 0 0 1-1.824-1.247 4.524 4.524 0 0 1-1.078-1.634 5.988 5.988 0 0 1-.355-2.157 6.891 6.891 0 0 1 .647-3.04 6.6 6.6 0 0 1 1.757-2.23 7.648 7.648 0 0 1 2.572-1.37 10.215 10.215 0 0 1 3.1-.462 11.756 11.756 0 0 1 2.248.215 16.733 16.733 0 0 1 2.116.547 15.078 15.078 0 0 1 1.9.77q.878.432 1.622.861z" class="cls-7" data-name="패스 10" transform="translate(-504.239 -42.448)"/>
</svg>
