<?xml version="1.0" encoding="utf-8"?>
<!-- Generator: Adobe Illustrator 21.1.0, SVG Export Plug-In . SVG Version: 6.00 Build 0)  -->
<svg version="1.1" id="ade8c9af-7e2e-4eda-b5c8-b06129257226"
	 xmlns="http://www.w3.org/2000/svg" xmlns:xlink="http://www.w3.org/1999/xlink" x="0px" y="0px" viewBox="0 0 1076.1 755.2"
	 style="enable-background:new 0 0 1076.1 755.2;" xml:space="preserve">
<style type="text/css">
	.st0{fill:#3F3D56;}
	.st1{fill:#F89F00;}
	.st2{fill:#2F2E41;}
	.st3{opacity:0.1;enable-background:new    ;}
	.st4{fill:#A0616A;}
	.st5{fill:#F3A5A4;}
	.st6{fill:#D0CDE1;}
	.st7{fill:#F2F2F2;}
	.st8{fill:#FFB6B5;}
</style>
<title>web_developer</title>
<path class="st0" d="M864.1,702.4c-7,26.6-31.5,43.2-31.5,43.2s-13.2-26.5-6.2-53.1s31.5-43.2,31.5-43.2S871.1,675.8,864.1,702.4z"
	/>
<path class="st1" d="M853.6,696.8c-19.6,19.3-21.8,48.8-21.8,48.8s29.5-1.8,49.1-21.2s21.8-48.8,21.8-48.8S873.1,677.5,853.6,696.8z
	"/>
<path class="st2" d="M144.7,601.8h36.8l90.8-35.5c0,0,64.5-26.3,59.2,23.7s-14.5,117.1-14.5,117.1s-28.9-13.2-44.7-9.2
	s-5.3-80.3-5.3-80.3s-128.9,61.8-140.8,53.9s-14.5-63.2-14.5-63.2L144.7,601.8z"/>
<path class="st3" d="M144.7,601.8h36.8l90.8-35.5c0,0,64.5-26.3,59.2,23.7s-14.5,117.1-14.5,117.1s-28.9-13.2-44.7-9.2
	s-5.3-80.3-5.3-80.3s-128.9,61.8-140.8,53.9s-14.5-63.2-14.5-63.2L144.7,601.8z"/>
<path class="st4" d="M202.8,486.4l44.6,64.1l103.9,86.8c0,0,96.1,22.4,82.9,38.2s-93.4-15.8-93.4-15.8S221,572.9,217.1,566.3
	s-47.4-68.4-47.4-68.4L202.8,486.4z"/>
<path class="st5" d="M202.8,486.4l44.6,64.1l103.9,86.8c0,0,96.1,22.4,82.9,38.2s-93.4-15.8-93.4-15.8S221,572.9,217.1,566.3
	s-47.4-68.4-47.4-68.4L202.8,486.4z"/>
<path class="st6" d="M176.3,434.7l28.9,56.6c0,0-6.6,27.6-17.1,30.3s-55.3-34.2-55.3-34.2L176.3,434.7z"/>
<path class="st3" d="M176.3,434.7l28.9,56.6c0,0-6.6,27.6-17.1,30.3s-55.3-34.2-55.3-34.2L176.3,434.7z"/>
<path class="st2" d="M529.5,572.5l8.6,35.3c0.1,0.4,0.1,0.8,0,1.2l-38.8,121.2c-0.4,1.2-1.6,1.8-2.8,1.4c-0.8-0.3-1.4-1-1.5-1.8
	l-5.4-47.2c0-0.3,0-0.6,0.1-0.9l35.6-109.3c0.4-1.2,1.6-1.8,2.8-1.4C528.7,571.2,529.3,571.8,529.5,572.5z"/>
<polygon class="st7" points="526.3,575.5 534.2,605.8 500,716.3 492.1,682.1 "/>
<path class="st2" d="M353.9,740c1.3,3.9,136.8-1.3,138.2-2.6c1.1-1.6,2.1-3.4,2.9-5.3c1.2-2.6,2.4-5.3,2.4-5.3l-5.3-42.6l-134.2-4.8
	c0,0-3.4,36.1-4,52.6C353.7,736.2,353.7,739.2,353.9,740z"/>
<polygon class="st3" points="475,690 477.6,726.8 418.4,726.8 418.4,690 "/>
<polygon class="st3" points="398.7,701.8 399,701.7 397.4,717.6 364.5,717.6 364.5,701.8 "/>
<path class="st3" d="M353.9,740c1.3,3.9,136.8-1.3,138.2-2.6c1.1-1.6,2.1-3.4,2.9-5.3H353.8C353.7,736.2,353.7,739.2,353.9,740z"/>
<circle class="st8" cx="196" cy="357.1" r="59.2"/>
<path class="st8" d="M192.1,409.7c0,0-19.7,34.2-23.7,52.6s-59.2-36.8-59.2-36.8l-7.2-19.1c0,0,52-24.3,48-44.1
	S192.1,409.7,192.1,409.7z"/>
<path class="st8" d="M202.6,512.3l53.9,71.1l128.9,96.1c0,0,93.4,19.7,72.4,34.2s-81.6-13.2-81.6-13.2S246,630.8,218.4,601.8
	s-78.9-77.6-78.9-77.6L202.6,512.3z"/>
<path class="st2" d="M130.3,622.9l15.8,25l94.2-29.6c20.7-6.5,43.3-4.1,61.7,7.4c16.4,10.4,27,26.8,3.3,51.2
	c-47.4,48.7-78.9,22.4-78.9,22.4s-159.2,75-185.5,38.2s-27.6-55.3-27.6-55.3S114.5,618.9,130.3,622.9z"/>
<path class="st6" d="M327.6,709.7c0,0,42.1,27.6-7.9,40.8s-86.8-5.3-86.8-5.3s-43.4,0-43.4-22.4s14.5-25,14.5-25l44.7,6.6
	C248.7,704.4,302.6,690,327.6,709.7z"/>
<path class="st2" d="M244.6,342.2c4,1.8,8,3.9,12.4,4.4s9.4-1,11.4-4.9c1.1-2.1,1.2-4.6,1.3-7c0.2-7.2-0.4-15-4.9-20.6
	c-2.9-3.6-7.2-5.8-10.2-9.3c-2.2-2.5-3.6-5.5-5.1-8.4c-5.9-11-14.6-21.6-26.6-24.8c-5-1.3-10.3-1.3-15.5-1.2l-30.4,0.4
	c-4.9,0.1-9.9,0.2-14.6,1.6c-9.8,3-16.9,11.2-23.4,19.1c-4.9,5.9-9.8,11.8-13.4,18.5c-5.3,9.8-7.9,20.8-7.7,31.9
	c0,2.9,0.3,5.7,1.1,8.4c0.9,2.5,2,5,3.3,7.3c5.7,11.2,9.1,25.2,2.7,36c11.2-4.6,22.2-10.5,29.5-20.1c3.3-4.3,5.9-9.3,10.3-12.4
	s11.5-3.4,14.3,1.2c1,1.9,1.5,3.9,1.5,6c0.2,3.4,0.2,7,1.7,10.2s4.9,5.7,8.3,4.7c5.7-1.6,5.2-10.4,9.6-14.4c3.4-3,8.5-2.5,12.8-3.8
	c5-1.6,8.8-5.9,10.9-10.8c1.6-3.7,1.6-13.2,4.7-15.2C232.2,336.6,241,340.6,244.6,342.2z"/>
<path class="st6" d="M97.3,400.2c2.7-0.7,5.5-0.7,8.1,0c8.4,2.3,27.4,8.3,31.4,17.4c5.3,11.8,23.7,30.3,23.7,30.3s25,25,19.7,42.1
	s-25,36.8-25,36.8s5.3,81.6-21.1,102.6s-36.8,6.6-36.8,26.3S15.8,737.3,0,699.2c0,0,7.9-71.1,5.3-96.1
	C2.7,578.5,6.5,424.8,97.3,400.2z"/>
<path class="st6" d="M139.5,433.4c0,0,80.3,59.2,65.8,84.2c0,0-48.7,23.7-59.2,22.4s-51.3-47.4-61.8-51.3S68.4,413.7,139.5,433.4z"
	/>
<circle class="st7" cx="498.1" cy="237.5" r="65"/>
<path class="st0" d="M1034.9,153H670.7V76.8h364.2V153z M672.3,151.4h361v-73h-361V151.4z"/>
<rect x="645.8" y="92.1" class="st1" width="362.6" height="74.6"/>
<circle class="st1" cx="416.6" cy="15.2" r="5.6"/>
<circle class="st1" cx="435.8" cy="15.2" r="5.6"/>
<circle class="st1" cx="455.1" cy="15.2" r="5.6"/>
<path class="st0" d="M1076.1,439.7H400.5V0h675.5V439.7z M402.1,438.1h672.3V1.6H402.1V438.1z"/>
<rect x="401.3" y="24.3" class="st0" width="673.9" height="1.6"/>
<path class="st0" d="M418.2,19.3c-3.5,0-6.4-2.9-6.4-6.4c0-3.5,2.9-6.4,6.4-6.4c3.5,0,6.4,2.9,6.4,6.4
	C424.6,16.4,421.7,19.3,418.2,19.3z M418.2,8c-2.7,0-4.8,2.2-4.8,4.8s2.2,4.8,4.8,4.8c2.7,0,4.8-2.2,4.8-4.8
	C423,10.2,420.8,8,418.2,8z"/>
<path class="st0" d="M437.4,19.3c-3.5,0-6.4-2.9-6.4-6.4c0-3.5,2.9-6.4,6.4-6.4c3.5,0,6.4,2.9,6.4,6.4
	C443.8,16.4,441,19.3,437.4,19.3z M437.4,8c-2.7,0-4.8,2.2-4.8,4.8s2.2,4.8,4.8,4.8c2.7,0,4.8-2.2,4.8-4.8
	C442.2,10.2,440.1,8,437.4,8z"/>
<path class="st0" d="M456.7,19.3c-3.5,0-6.4-2.9-6.4-6.4s2.9-6.4,6.4-6.4c3.5,0,6.4,2.9,6.4,6.4c0,0,0,0,0,0
	C463.1,16.4,460.2,19.3,456.7,19.3z M456.7,8c-2.7,0-4.8,2.2-4.8,4.8c0,2.7,2.2,4.8,4.8,4.8c2.7,0,4.8-2.2,4.8-4.8c0,0,0,0,0,0
	C461.5,10.2,459.3,8,456.7,8z"/>
<rect x="612.1" y="25.1" class="st0" width="1.6" height="414.3"/>
<rect x="688.7" y="228.9" class="st7" width="117.9" height="16"/>
<rect x="874.1" y="228.9" class="st7" width="117.9" height="16"/>
<path class="st0" d="M813.9,237.7H694.3V220h119.5V237.7z M696,236.1h116.3v-14.4H696V236.1z"/>
<rect x="688.7" y="353.2" class="st7" width="117.9" height="16"/>
<path class="st0" d="M813.9,362H694.3v-17.7h119.5V362z M696,360.4h116.3V346H696V360.4z"/>
<rect x="689.1" y="289.4" class="st7" width="303.3" height="16"/>
<path class="st0" d="M999.6,299.9H694.8v-17.7h304.9V299.9z M696.4,298.3H998v-14.4H696.4V298.3z"/>
<path class="st0" d="M999.2,237.7H879.7V220h119.5V237.7z M881.3,236.1h116.3v-14.4H881.3L881.3,236.1z"/>
<path class="st0" d="M509.1,285.5c-36.5,0-66-29.5-66-66s29.5-66,66-66s66,29.5,66,66C575,255.9,545.5,285.4,509.1,285.5z
	 M509.1,155.5c-35.3,0-64,28.7-64,64s28.7,64,64,64s64-28.7,64-64C573,184.1,544.4,155.5,509.1,155.5z"/>
<rect x="748.1" y="744.5" class="st0" width="283" height="2"/>
</svg>
