<svg xmlns="http://www.w3.org/2000/svg" viewBox="0 0 757 216"><title>Projects-New Ara</title><polygon points="0 149.46 34.08 81.99 0 27.52 0 149.46" style="fill:#ec8f26"/><polygon points="15.47 216 100 138.25 45.96 161.54 15.47 216" style="fill:#eba12a"/><polygon points="82.01 0 0.71 157.3 53.62 130.48 99.38 75.13 82.01 0" style="fill:#eba12a"/><polygon points="53.62 130.48 0.71 157.3 45.96 161.54 100 138.25 53.62 130.48" style="fill:#ec8f26"/><path d="M175.26,100.29V162H150.34V54.08h19.45l50.31,63.38V54.08H245V162H225Z" style="fill:#eba12a"/><path d="M300.82,163.52a47.17,47.17,0,0,1-18-3.27,39.93,39.93,0,0,1-13.52-8.89,38,38,0,0,1-8.44-13A41.77,41.77,0,0,1,258,122.94a45.87,45.87,0,0,1,2.89-16.34,39.61,39.61,0,0,1,8.36-13.46A39,39,0,0,1,282.65,84a46.83,46.83,0,0,1,18.17-3.34A46.23,46.23,0,0,1,318.9,84a39.79,39.79,0,0,1,13.38,9,38.2,38.2,0,0,1,8.28,13.15,43.8,43.8,0,0,1,2.82,15.65c0,1.42-.06,2.81-.16,4.18a29.79,29.79,0,0,1-.45,3.57h-59q.61,8.07,5.85,12.24A18.63,18.63,0,0,0,301.58,146a21.93,21.93,0,0,0,10.26-2.58,13.25,13.25,0,0,0,6.61-7l20.67,5.78a37.22,37.22,0,0,1-14.59,15.35Q314.65,163.51,300.82,163.52Zm16.87-48.94q-.76-7.6-5.47-12a16.5,16.5,0,0,0-11.71-4.41,16.29,16.29,0,0,0-11.78,4.48,18.58,18.58,0,0,0-5.39,11.94Z" style="fill:#eba12a"/><path d="M450.69,82.2h23.1l-33,79.8H420.9l-12.32-32.83L396.27,162H376.36l-33-79.8h22.95l21.73,57.3,7.45-21.73L381.38,82.2h19.45l7.75,24,7.6-24h19.46l-14,35.57,7.44,21.73Z" style="fill:#eba12a"/><path d="M539.45,54.08H562L601.32,162H575.78l-8.36-24.17H533.83L525.62,162H500.09Zm23.87,66.58L550.7,82.5l-12.92,38.16Z" style="fill:#eba12a"/><path d="M660.6,103a46.88,46.88,0,0,0-16,2.89q-7.15,2.75-10.34,8.21V162H610V82.2h22.35V98.31A33.78,33.78,0,0,1,642.89,85.7,24.43,24.43,0,0,1,656.65,81h2.43a7.93,7.93,0,0,1,1.52.16Z" style="fill:#eba12a"/><path d="M692.37,163.52a31.19,31.19,0,0,1-11-1.9,25.77,25.77,0,0,1-8.74-5.32,25.49,25.49,0,0,1-5.78-8.06,23.91,23.91,0,0,1-2.13-10.1,23.25,23.25,0,0,1,2.51-10.8,24.86,24.86,0,0,1,7.07-8.36,35,35,0,0,1,10.79-5.47,45.84,45.84,0,0,1,13.83-2,56.27,56.27,0,0,1,9.73.83,32.26,32.26,0,0,1,8.21,2.51v-3.65q0-13.83-16-13.83a35.64,35.64,0,0,0-12.46,2.2A59.84,59.84,0,0,0,676,106.22L668.81,91a64,64,0,0,1,16.41-7.76,62.1,62.1,0,0,1,18.09-2.58q18.09,0,28,8.51t9.88,24.93v20.52q0,3.65,1.14,5.09a5.62,5.62,0,0,0,4,1.75V162a40,40,0,0,1-5.78,1c-1.72.15-3.29.23-4.71.23q-6.84,0-10.34-2.66a11.75,11.75,0,0,1-4.4-7.53l-.46-3.65A36.49,36.49,0,0,1,708,159.87,34.73,34.73,0,0,1,692.37,163.52ZM699.51,146a22.17,22.17,0,0,0,7.68-1.37,17.84,17.84,0,0,0,6.15-3.65q3.49-2.73,3.5-5.77v-7.6a38.85,38.85,0,0,0-6.92-1.9,38,38,0,0,0-6.91-.69,18.79,18.79,0,0,0-11,3,9.28,9.28,0,0,0-4.33,7.91,9,9,0,0,0,3.34,7.22A12.8,12.8,0,0,0,699.51,146Z" style="fill:#eba12a"/></svg>